<?xml version="1.0" encoding="utf-8"?>
<!-- Generator: Adobe Illustrator 24.0.2, SVG Export Plug-In . SVG Version: 6.00 Build 0)  -->
<svg version="1.1" id="Layer_1" xmlns="http://www.w3.org/2000/svg" xmlns:xlink="http://www.w3.org/1999/xlink" x="0px" y="0px"
	 viewBox="0 0 113.4 113.4" style="enable-background:new 0 0 113.4 113.4;" xml:space="preserve">
<style type="text/css">
	.st0{fill:#EDCCFF;stroke:#EDCCFF;stroke-miterlimit:10;}
</style>
<g>
	<path class="st0" d="M56.3,26.6c4.4,0,8.8,0,13.1,0c4.2,0,7.9,1.2,11.1,3.8c2.9,2.4,4.9,5.4,5.7,9c0.3,1.3,0.5,2.7,0.5,4.1
		c0,9,0,18,0,27.1c0,5.3-2.1,9.6-6.1,13c-3,2.6-6.6,3.9-10.6,3.9c-9.2,0-18.4,0.1-27.6,0c-6.2-0.1-11-2.9-14.3-8.1
		c-1.7-2.6-2.4-5.6-2.4-8.7c0-9.1-0.1-18.1,0-27.2c0.1-6.6,3.1-11.5,8.8-14.8c2.5-1.4,5.3-2.1,8.1-2.1
		C47.2,26.6,51.7,26.6,56.3,26.6z M81.3,57.1c0-4.4,0-8.9,0-13.3c0-1.7-0.2-3.4-1-5c-2.2-4.4-5.7-6.7-10.6-6.7c-9,0-17.9,0-26.9,0
		c-1.7,0-3.4,0.3-4.9,1c-4.4,2.2-6.7,5.7-6.7,10.6c0,9,0,17.9,0,26.8c0,1.7,0.3,3.4,1,4.9c2.2,4.4,5.7,6.7,10.5,6.7
		c9,0.1,18,0.1,27,0c4.4,0,7.7-1.9,10-5.7c1.1-1.8,1.6-3.9,1.6-6C81.3,65.9,81.3,61.5,81.3,57.1z"/>
	<path class="st0" d="M40.5,57.4c-0.3-8.6,6.6-15.8,15.3-16C64.5,41.1,71.7,48,72,56.7c0.3,8.6-6.6,15.8-15.3,16
		C48,73,40.8,66.1,40.5,57.4z M66.5,57.1c0-5.7-4.6-10.3-10.3-10.3c-5.7,0-10.3,4.6-10.3,10.3c0,5.7,4.6,10.3,10.3,10.3
		C61.9,67.3,66.5,62.7,66.5,57.1z"/>
	<path class="st0" d="M72.6,44.7c-2.2,0-4-1.8-4-4c0-2.2,1.8-3.9,3.9-4c2.2,0,4,1.8,4,4C76.6,42.9,74.8,44.7,72.6,44.7z"/>
</g>
</svg>
