<?xml version="1.0" encoding="utf-8"?>
<!-- Generator: Adobe Illustrator 24.0.2, SVG Export Plug-In . SVG Version: 6.00 Build 0)  -->
<svg version="1.1" id="Capa_1" xmlns="http://www.w3.org/2000/svg" xmlns:xlink="http://www.w3.org/1999/xlink" x="0px" y="0px"
	 viewBox="0 0 170.1 170.1" style="enable-background:new 0 0 170.1 170.1;" xml:space="preserve">
<style type="text/css">
	.st0{fill:#0386BF;}
	.st1{fill:#F9C38B;}
	.st2{fill:#EDD7EA;}
	.st3{fill:#C9A283;}
	.st4{fill:#3D396A;}
	.st5{fill:none;}
	.st6{fill:none;stroke:#3D396A;stroke-width:2;stroke-miterlimit:10;}
	.st7{fill:#EDD7EA;stroke:#3D396A;stroke-width:2;stroke-miterlimit:10;}
</style>
<path class="st0" d="M149.1,60c-0.2,0.2-0.4,0.4-0.6,0.6c-3.7,4.1-7.9,6.5-11.4,7.9c-0.3,3-0.4,7.5,0.5,12.8
	c0.1,0.9,0.5,2.8,1.9,7.8c2.5,8.9,3.8,11.3,4.2,13.2c0.8,4.7-3.5,12.4-26.9,25.5c-1.6,2.2-3.4,3.5-4.3,4.1c-1.1,0.8-2.2,1.4-3.1,1.8
	C108,144.5,97.7,153,85.1,153c-12.7,0-23.1-8.6-24.3-19.7c-0.8-0.4-1.6-0.9-2.5-1.5c-0.8-0.6-2.7-2-4.3-4.2
	c-23.4-13-27.7-20.7-26.9-25.4c0.3-1.9,1.6-4.2,4.2-13.2c1.4-4.9,1.8-6.9,1.9-7.8c0.9-5.3,0.8-9.8,0.5-12.8
	c-3.5-1.4-7.7-3.7-11.4-7.8c-7.4-8.2-7.6-18-7.7-22.6c-0.2-9,2.6-16,4.7-20c6.5,5.6,12.3,7.5,16.4,8.1c6.6,1,10-0.9,15.1,1.1
	c3.4,1.3,6,3.7,7.9,6.3c1.3-1,2-1.6,3.4-2.3c4.7-2.3,9.4-2,12.4-1.7c5.1,0.4,8.9,2.1,10.9,3.1c2-1,5.8-2.7,10.9-3.1
	c2.9-0.2,7.6-0.6,12.4,1.7c1.4,0.7,2.1,1.3,3.4,2.3c1.9-2.7,4.5-5.1,7.9-6.3c5.1-1.9,8.5,0,15.1-1.1c4.1-0.6,9.9-2.5,16.4-8.1
	c2.1,4,4.9,11.1,4.7,20C156.1,42.5,155.9,51.9,149.1,60z"/>
<path class="st0" d="M149.1,60.1c-0.2,0.2-0.4,0.4-0.6,0.6c-3.7,4.1-7.9,6.5-11.4,7.8c-0.3,3-0.4,7.5,0.5,12.8
	c0.1,0.9,0.5,2.8,1.9,7.8c2.5,8.9,3.8,11.3,4.2,13.2c0.8,4.7-3.5,12.4-26.9,25.5c-1.6,2.2-3.4,3.5-4.3,4.1c-1.1,0.8-2.2,1.4-3.1,1.8
	C108,144.5,97.7,153,85.1,153c-12.7,0-23.1-8.6-24.3-19.7c-0.8-0.4-1.6-0.9-2.5-1.5c-0.8-0.6-2.7-2-4.3-4.2
	c-23.4-13-27.7-20.7-26.9-25.4c0.3-1.9,1.6-4.2,4.2-13.2c1.4-4.9,1.8-6.9,1.9-7.8c0.9-5.3,0.8-9.8,0.5-12.8
	c-3.5-1.4-7.7-3.7-11.4-7.8c-7.4-8.2-7.6-18-7.7-22.6c-0.2-9,2.6-16,4.7-20c6.5,5.6,12.3,7.5,16.4,8.1c6.6,1,10-0.9,15.1,1.1
	c3.4,1.3,6,3.7,7.9,6.3c1.3-1,2-1.6,3.4-2.3c4.7-2.3,9.4-2,12.4-1.7c5.1,0.4,8.9,2.1,10.9,3.1c2-1,5.8-2.7,10.9-3.1
	c2.9-0.2,7.6-0.6,12.4,1.7c1.4,0.7,2.1,1.3,3.4,2.3c1.9-2.7,4.5-5.1,7.9-6.3c5.1-1.9,8.5,0,15.1-1.1c4.1-0.6,9.9-2.5,16.4-8.1
	c2.1,4,4.9,11.1,4.7,20C156.1,42.5,155.9,52,149.1,60.1z"/>
<path class="st1" d="M98.3,59.5c0.2,0.8,0.4,1.7,1.3,2.1c1.2,0.5,2.3,1,3.6,1.3c0.4,0.1,1.1-0.3,1.5-0.7c0.8-0.8,1.3-2.1,2.2-2.4
	c1.3-0.4,1.6,1.8,3.2,2c1.3-1,2-2.5,2.8-3.9c1-1.9,1.8-3.9,3-5.6c1.4-2,1.7-4.3,1.7-6.5c0-2-0.9-4-1.6-6c-0.3-0.8-1.2-1.2-2.1-1.2
	c-0.8,0-1.3,0.6-1.5,1.3c-0.4,1.2-0.6,2.5-1.4,3.5c-0.8,0.9-1.7,1.1-2.5,0.2c-1.7-1.8-3.3-3.5-5-5.3c-1.4-1.5-1.9-1.3-3,0.6
	c-1.1,1.7-0.9,4.6-4,4.7c-0.2,0-0.4,0.7-0.6,1.1c-0.2,0.5-0.5,1.1-0.5,1.6c-0.1,3.8-0.6,7.7,2,11C97.7,57.9,98,58.7,98.3,59.5z"/>
<path class="st1" d="M101,130.2c1.6-1.1,3.1-2.4,4.7-3.6c1.2-0.9,2.1-1.9,2.5-3.3c0.3-1.1,1.1-2,1.2-3.1c0.1-1.2-1.6-1.4-2-2.6
	c-0.3-1.1-1.3-1.3-2.4-0.7c-0.6,0.4-1.1,0.2-1.4-0.3c-0.4-0.7-0.7-1.6-1.8-1.4c-1,0.2-1.2,1.1-1.7,1.8c-0.2,0.2-0.4,0.4-0.6,0.6
	c-0.1-0.1-0.3-0.2-0.3-0.3c-0.4-0.5-0.5-1.4-1.4-1.3c-0.9,0.1-1.1,0.8-1.1,1.6c-0.1,2.8-0.2,5.7-0.3,8.5c-0.1,1.5,0.7,2.7,1.7,3.8
	C99.1,130.8,99.7,131.1,101,130.2z"/>
<path class="st1" d="M37.8,28.2c0-0.6,0-1.2-0.2-1.8c-0.6,0-1.3-0.1-1.9-0.2c-4.1-0.6-9.9-2.5-16.4-8.1c-2.1,4-4.9,11.1-4.7,20
	c0.1,2.3,0.1,6,1.2,10.2c0.1-0.2,0.2-0.4,0.2-0.6c0-0.8-0.1-1.7-0.1-2.6c0-0.5-0.3-1.2,0.5-1.4c0.6-0.1,1,0.5,1.3,0.9
	c0.5,0.7,0.8,1.5,1.3,2.2c0.4,0.6,1,1,1.8,0.9c0.9-0.1,1-0.8,1.1-1.5c0.2-1.5,0.4-3.1,0.7-4.6c0.1-0.4,0.5-0.7,1-0.4
	c0.5,0.3,0.8,0.8,1.3,1.1c1,0.6,2.1,0.2,2.2-1c0.1-2.1,0.2-4.3,0.3-6.4c0-0.2,0.2-0.5,0.5-0.6c0.2-0.1,0.6-0.1,0.7,0.1
	c1.3,1.5,2.5,3,3.9,4.5c1.3,1.3,3.1,1,3.8-0.7c0.2-0.5,0.4-1.1,0.4-1.6c0-1.3,0.2-2.5,1-3.6c0.5-0.6,0.4-1.3,0.3-2
	C37.7,30.1,37.8,29.2,37.8,28.2z"/>
<path class="st1" d="M49.7,72.8c-0.6,1.9-2,3.6-2.1,5.7c-0.2,2.7-1.1,5-3.1,6.8c-0.4,0.4-0.7,0.9-1,1.3c-0.7,1.2,0.1,3.1-1.7,3.8
	c-1.3,0.5-2.5-0.5-3.7-0.7c-2.2-0.3-4.4,0.4-6.5-0.6c-0.1-0.1-0.3,0-0.5,0c1.4-5,1.8-7,1.9-7.9c0.9-5.3,0.8-9.8,0.5-12.8
	c-1-0.4-2-0.8-3.1-1.4c0.3-0.9,0.6-1.8,1.3-2.5c2.2-2.3,2.5-5.2,3-8.1c0.4-2.5,0.9-5,1.4-7.6c0.3-1.9,1.1-2.5,3-2.5
	c0.7,0,1.5,0.1,2.2,0.1c1.3,0,2.1,0.8,2.4,1.9c0.4,1.4,0.8,2.8,2,3.8c0.9,0.8,0.8,2,0.8,3.1c0.1,3.5,0.3,6.9,2.4,10
	c0.9,1.2,0.9,2.8,0.9,4.9c0-0.3,0,0.1,0,0.5C50.1,71.4,50,72.1,49.7,72.8z"/>
<path class="st1" d="M47.8,108.7c0-0.1,0-0.3-0.1-0.4c-0.5-1.7-1.2-3.4-1.5-5.2c0-0.1-0.1-0.3-0.2-0.4c-0.5-0.6-1.1-0.9-1.8-0.9
	c-0.8,0-1.4,0.3-1.6,1.1c-0.6,1.7-0.8,3.7-3.3,4.8c-1.6-2.7-4.1-4.4-6-6.7c-0.8-1-1.8-0.9-2.3,0.2c-0.6,1.3-1.1,2.6-1.6,3.9
	c-0.2,0.6-0.6,1-1.2,1c-0.2,0-0.4,0-0.5,0c1.4,3.6,5.5,8.4,15.3,14.9c1.4-2.4,2.7-4.8,4-7.3c0.3-0.5,0.4-1.1,0.5-1.6
	C47.5,110.9,48,109.7,47.8,108.7z"/>
<path class="st1" d="M66.4,78.1c3.4-2.5,6.7-5.2,9.9-7.9c0.6-0.5,1.1-1.5,1.3-2.3c0.4-1.6,1-2.9,2.1-4.1c0.7-0.8,0.6-1.8-0.1-2.4
	c-1.3-1.2-2.7-2.2-3.4-4c-0.4-1.1-1.8-1.3-2.9-0.6c-1.1,0.7-2.1,0.8-2.9-0.3c-0.6-0.9-0.9-2.2-2.3-2.3c-1.7-0.1-2.3,1.2-2.8,2.5
	c-0.3,0.6-0.6,1.2-1.2,2.1c-0.7-1.4-1-2-1.3-2.5c-0.3-0.7-0.9-1.2-1.5-1c-0.6,0.2-1.2,0.7-1.4,1.2c-0.4,1-0.5,2.2-0.6,3.3
	c-0.2,3.4-0.1,6.8-0.4,10.1c-0.3,3.2,1.1,5.7,3.2,7.8C63.5,78.9,64.7,79.3,66.4,78.1z"/>
<path class="st1" d="M80.2,46c0.2-2.2,0.3-4.4,0.4-6.6c0.1-3-0.1-6-0.6-8.8c-1.6-0.5-3.5-0.8-5.5-1c-2.9-0.2-7.6-0.6-12.4,1.7
	c-0.3,0.1-0.5,0.3-0.7,0.4c0.6,2.4,1.3,4.8,2,7.2c0.5,1.9,1.5,4.4,4,4.9c3.2,0.7,4.9,2.8,6.3,5.4c0.8,1.5,2,1.7,3.3,2.1
	c1.7,0.5,2.7,0,2.9-1.8C79.9,48.3,80,47.2,80.2,46z"/>
<path class="st1" d="M125.3,104.9c0.2,0.2,0.4,0.5,0.6,0.9c0.8,1.7,1.6,3.3,2.4,5c1,2,1,2,3.5,1.3c0.4-0.1,0.7-0.3,0.7-0.3
	c0.8-0.3,2.4-0.3,6,0.8c4.5-4.5,5.5-7.9,5.1-10.4c-0.3-1.9-1.6-4.2-4.2-13.2c-1.4-4.9-1.8-6.9-1.9-7.8c-0.1-0.8-0.3-1.6-0.4-2.4
	c-0.6,2-1.1,3.6-1.3,4.2c-0.1,0.1-0.2,0.4-0.4,0.5c-0.3,0.1-0.6,0-0.9-0.2c-0.3-0.3-0.6-0.6-0.9-0.9c-1.2-0.8-2.1-0.5-2.4,1
	c-0.4,1.7-0.6,3.3-0.9,5c-0.1,0.4-0.3,0.8-0.6,1c-0.4,0.3-0.8-0.1-1-0.4c-1.1-1.5-2-3.1-3.1-4.5c-0.9-1.2-2.8-1.1-3.6,0.2
	c-0.2,0.3-0.5,0.7-0.6,1.1c-0.3,1.5-0.5,3.1-1.8,4.2c-0.3,0.2-0.5,0.8-0.4,1.2c0.3,2.1-1.3,4.2,0,6.3c0.3,0.6-0.1,1.1-0.4,1.6
	c-0.6,1-0.3,1.6,0.7,2c1.4,0.5,2.5,1.2,2.6,2.9c0,0.9,0.8,1.2,1.5,0.8C124.3,104.5,124.9,104.6,125.3,104.9z"/>
<path class="st1" d="M156.2,38.4c0-0.1,0-0.2,0-0.3c0.2-9-2.6-16-4.7-20c-5.5,4.7-10.5,6.8-14.3,7.7c-0.7,0.2-1.4,0.3-2.1,0.4
	c-1.5,0.2-2.9,0.3-4.2,0.3c-0.2,1.1-0.3,2.2,0.4,3.3c0.1,0.3-0.2,0.8-0.3,1.2c-0.4,1.7-0.5,1.9,1.1,2.5c0.1,0,1.1,0.6,1.6,1.1
	c0.2,0.2,0.9,1.1,0.4,3.1c0.3,0,0.7,0,1.1,0.1c0.3,0.1,0.8,0.2,1.7,0.7c1,0.5,1.4,0.8,1.8,1.2c0.7,0.7,0.4,1.1,1.3,2.7
	c0.5,0.8,0.6,2,1.7,2.4c0.9,0.3,1.6-0.1,2.4-0.5c0.2-0.1,0.6-0.2,0.8-0.1c1.9,1.1,3.9,0.2,5.9,0.7c1.1,0.3,1.7,0.4,2.2,0.2
	c0.7-0.3,0.7-1,1.4-1.9c0.6-0.7,1.1-1,1.6-1.3C156.1,40.5,156.2,39.3,156.2,38.4z"/>
<path class="st1" d="M99.6,78c1.8,1.1,5.5,2.9,10.5,2.8c1.4,0,8.4-0.3,13.7-5.7c2.1-2.2,3.2-4.4,3.8-5.9c-1.4-0.7-11.6-5.3-18.4-1.4
	c-1,0.6-2.7,1.8-4.4,3.3C102.2,73.7,100.6,76.2,99.6,78C99.6,78,99.6,78,99.6,78z"/>
<path class="st1" d="M71.7,78C71.7,78,71.7,78,71.7,78c-0.9-1.8-2.6-4.4-5.3-6.8c-1.7-1.6-3.4-2.7-4.4-3.3c-6.8-3.9-17,0.7-18.4,1.4
	c0.6,1.5,1.8,3.7,3.8,5.9c5.3,5.5,12.3,5.7,13.7,5.7C66.2,80.9,69.9,79.1,71.7,78z"/>
<path class="st2" d="M104.6,105.4c1.3-2.8,2-6.1,1.8-9.2c-2.2,2.3-5.7,5.2-10.6,7.2c-4,1.6-7.6,2-10.2,2.1
	c-2.6-0.1-6.2-0.5-10.2-2.1c-4.9-2-8.4-4.9-10.6-7.2c-0.2,3.1,0.5,6.5,1.8,9.3c2,4.1,5.3,6.3,7.3,7.7c4.6,3,9.1,3.9,11.6,4.2
	c2.5-0.3,7.1-1.2,11.7-4.2C99.3,111.8,102.6,109.6,104.6,105.4C104.6,105.5,104.6,105.5,104.6,105.4z"/>
<path class="st3" d="M100.7,108c0.4,0.2,0.8,0.4,1.2,0.7c-1.7,2-3.6,3.2-5,4.1c-0.6,0.4-1.2,0.7-1.7,1.1c-0.2-1.1-0.3-2.6,0.5-3.9
	c0.2-0.4,1.1-1.9,2.9-2.2C99.3,107.6,100,107.7,100.7,108z"/>
<path class="st4" d="M116.6,67.3c-0.4-0.6-0.9-1.1-1.4-1.5c-2.2,0-4.4,0.4-6.4,1.5c-0.8,0.4-2,1.3-3.3,2.4c-0.6,1.5-1,3.3-0.9,5.3
	c0.2,2.1,0.9,3.8,1.7,5.1c1,0.2,2.2,0.3,3.3,0.3c0.9,0,4.1-0.1,7.8-1.7c0.6-1.2,1.2-2.8,1.2-4.6C118.8,73.1,118.7,70.1,116.6,67.3
	C116.6,67.3,116.6,67.3,116.6,67.3z"/>
<path class="st3" d="M75.5,112.5c0-0.8-0.2-1.7-0.7-2.5c-0.2-0.4-1.1-1.9-2.9-2.2c-1.1-0.2-2.3,0.2-3.3,1c1.7,1.9,3.6,3.2,5,4.1
	c0.6,0.4,1.2,0.7,1.7,1.1C75.5,113.5,75.5,113,75.5,112.5z"/>
<path class="st4" d="M54,67.2c0,0-0.1,0.1-0.1,0.1c-2.1,2.8-2.1,5.8-2.1,6.8c0.1,1.8,0.6,3.3,1.2,4.6c3.6,1.6,6.9,1.7,7.8,1.7
	c1.2,0,2.3-0.1,3.3-0.3c0.8-1.3,1.5-3,1.7-5.1c0.2-2-0.2-3.8-0.9-5.3c-1.3-1.1-2.6-1.9-3.3-2.4c-2-1.1-4.2-1.5-6.4-1.5
	C54.9,66.2,54.4,66.7,54,67.2z"/>
<path class="st5" d="M89.3,57.8c0.2-0.3,0.4-0.5,0.5-0.6c1.7-1.8,4.1-1.6,4.7-1.6c1.1,0.1,2,0.5,2.6,0.9c0,0,0-5.5,0-5.5v-6.5
	c-5.8,1.4-11.9,2.8-15.7,3.7V53c0,0,0,6.2,0,12.4c-0.6,1.7-1.8,3-3.4,3.6c-1.8,0.7-4.4,0.7-6-0.9c-1.4-1.4-1.3-3.2-1.3-3.4
	c0.1-1.7,1.1-2.8,1.3-3.1c1.7-1.8,4.1-1.6,4.7-1.6c1.1,0.1,1.9,0.5,2.5,0.9c0-0.1,0-11.6,0-11.6v-7c3-0.7,11.8-2.8,19.7-4.7v11.5
	v12.6c-0.7,1.4-1.8,2.5-3.2,3.1c-1.8,0.7-4.4,0.7-6-0.9c-1.4-1.4-1.3-3.2-1.3-3.4C88.4,59.2,88.9,58.3,89.3,57.8z"/>
<path class="st6" d="M138.1,62.9"/>
<path class="st6" d="M116.7,127.5c23.5-13.1,27.7-20.8,26.9-25.5c-0.3-1.9-1.6-4.2-4.2-13.2c-1.4-4.9-1.8-6.9-1.9-7.8
	c-0.9-5.3-0.8-9.8-0.5-12.8"/>
<path class="st6" d="M85.2,117.5c2.5-0.3,7.1-1.2,11.7-4.2c2.1-1.4,5.3-3.6,7.3-7.7c1.3-2.8,2-6.2,1.8-9.3"/>
<path class="st6" d="M85.2,127.3c1.3,1.6,4.2,4.6,8.9,6.4c1.7,0.7,6.2,2.3,11.7,1c1.1-0.3,3.8-1,6.6-3c1.4-1,5.5-4.1,6.9-9.6
	c0.5-2,1.4-5.7-0.8-8.3c-1.8-2.2-4.7-2.4-5.1-2.4c-2-0.1-3.5,0.6-4.2,1"/>
<path class="st6" d="M116.7,37c-5.3-3.8-5.7-4.7-8.2-5.9c-4.7-2.3-9.4-2-12.4-1.7c-5.1,0.4-8.9,2.1-10.9,3.1c-2-1-5.8-2.7-10.9-3.1
	c-2.9-0.2-7.6-0.6-12.3,1.7c-2.5,1.2-2.8,2.1-8.2,5.9"/>
<path class="st6" d="M132,69.9c3.4-0.8,10.6-2.9,16.4-9.4c7.4-8.2,7.6-18,7.7-22.6c0.2-9-2.6-16-4.7-20c-6.5,5.6-12.3,7.5-16.4,8.1
	c-6.6,1-10-0.9-15.1,1.1c-3.4,1.3-6,3.7-7.9,6.3"/>
<path class="st6" d="M99.2,77.9c1.8,1.1,5.5,2.9,10.5,2.8c1.4,0,8.4-0.3,13.7-5.7c2.1-2.2,3.2-4.4,3.8-5.9
	c-1.4-0.7-11.6-5.3-18.4-1.4c-1,0.6-2.7,1.8-4.4,3.3C101.8,73.5,100.2,76.1,99.2,77.9C99.2,77.9,99.2,77.9,99.2,77.9z"/>
<path class="st7" d="M146.6,30.4c-1.9-0.5-2.9,4.5-8.8,6.9c-3.4,1.4-4.6,0.3-8.1,2.2c-1.3,0.7-4.4,2.5-5.6,6
	c-0.2,0.6-0.6,1.8-0.5,3.4c0.3,4.1,3.6,6.5,4.2,6.9c0.4,0.3,3.2,2.3,6.9,2c7.3-0.4,11.3-8.7,11.9-9.9
	C150.2,40.4,149.1,31,146.6,30.4z"/>
<path class="st6" d="M95.2,114.3c-0.2-1.1-0.3-2.6,0.5-3.9c0.2-0.4,1.1-1.9,2.9-2.2c1.1-0.2,2.3,0.2,3.3,1"/>
<path class="st6" d="M117.5,79.1c0.6-1.2,1.2-2.8,1.2-4.6c0-1,0-4-2.1-6.8c-0.4-0.6-0.9-1.1-1.4-1.5"/>
<path class="st6" d="M109.4,65.1"/>
<path class="st6" d="M106.4,80.5c-0.8-1.3-1.5-3-1.7-5.1c-0.2-2,0.2-3.8,0.9-5.3"/>
<path class="st6" d="M97.3,130.7"/>
<path class="st6" d="M112.7,85.5"/>
<path class="st6" d="M104.1,124c2.6,0.4,7.8,1.6,12.6,5.8c2.4,2.1,4.1,4.3,5.1,6.1"/>
<path class="st6" d="M104.9,119.3c2.2-0.7,5.9-1.7,10.6-1.1c7.4,0.9,12.2,4.9,13.9,6.6"/>
<path class="st6" d="M32.4,62.9"/>
<path class="st6" d="M53.9,127.5c-23.4-13-27.7-20.7-26.9-25.4c0.3-1.9,1.6-4.2,4.2-13.2c1.4-4.9,1.8-6.9,1.9-7.8
	c0.9-5.3,0.8-9.8,0.5-12.8"/>
<path class="st6" d="M85.2,117.5c-2.5-0.3-7-1.2-11.6-4.2c-2.1-1.4-5.3-3.6-7.3-7.7c-1.3-2.8-2-6.2-1.8-9.3"/>
<path class="st6" d="M85.2,127.3c-1.3,1.6-4.2,4.6-8.8,6.4c-1.7,0.6-6.2,2.3-11.7,1c-1.1-0.3-3.8-1-6.5-3c-1.4-1-5.5-4.1-6.9-9.6
	c-0.5-2-1.4-5.7,0.8-8.3c1.8-2.2,4.7-2.4,5.1-2.4c2-0.1,3.5,0.6,4.2,1"/>
<path class="st6" d="M85.2,127.5c0,0-0.1,0.1-0.1,0.1"/>
<path class="st6" d="M58.6,33.4c-1.9-2.7-4.5-5.1-7.9-6.3c-5.1-1.9-8.5,0-15.1-1.1c-4.1-0.6-9.9-2.5-16.4-8.1
	c-2.1,4-4.9,11.1-4.7,20c0.1,4.5,0.3,14.3,7.7,22.6c5.8,6.5,13,8.6,16.4,9.4"/>
<path class="st6" d="M64.5,96.3c2.2,2.3,5.7,5.2,10.6,7.2c4,1.6,7.6,2,10.2,2.1c2.6-0.1,6.2-0.5,10.2-2.1c4.9-2,8.4-4.9,10.6-7.2"/>
<path class="st6" d="M71.3,77.9C71.3,77.9,71.4,77.9,71.3,77.9c-0.9-1.8-2.6-4.4-5.3-6.8c-1.7-1.6-3.4-2.7-4.4-3.3
	c-6.8-3.9-17,0.7-18.4,1.4c0.6,1.5,1.8,3.7,3.8,5.9c5.3,5.5,12.3,5.7,13.7,5.7C65.8,80.8,69.5,79,71.3,77.9z"/>
<path class="st7" d="M24,30.4c1.9-0.5,2.9,4.5,8.8,6.9c3.5,1.4,4.6,0.3,8.1,2.2c1.3,0.7,4.4,2.5,5.6,6c0.2,0.6,0.6,1.8,0.5,3.4
	c-0.3,4.1-3.6,6.5-4.2,6.9c-0.4,0.3-3.2,2.3-6.9,2C28.7,57.4,24.6,49.1,24,48C20.4,40.4,21.5,31,24,30.4z"/>
<path class="st6" d="M75.4,114.3c0.2-1.1,0.3-2.6-0.5-3.9c-0.2-0.4-1.1-1.9-2.9-2.2c-1.1-0.2-2.3,0.2-3.3,1"/>
<path class="st6" d="M53.1,79.1c-0.6-1.2-1.2-2.8-1.2-4.6c0-1,0-4,2.1-6.8c0.5-0.6,0.9-1.1,1.4-1.5"/>
<path class="st6" d="M61.1,65.1"/>
<path class="st6" d="M64.2,80.5c0.8-1.3,1.5-3,1.7-5.1c0.2-2-0.2-3.8-0.9-5.3"/>
<path class="st6" d="M73.3,130.7"/>
<path class="st6" d="M57.8,85.5"/>
<path class="st6" d="M66.5,124c-2.6,0.4-7.8,1.6-12.6,5.8c-2.4,2.1-4.1,4.3-5.1,6.1"/>
<path class="st6" d="M65.7,119.3c-2.2-0.7-5.9-1.7-10.5-1.1c-7.4,0.9-12.2,4.9-13.9,6.6"/>
<path class="st6" d="M85.2,117.5c0,3.3,0,6.6,0,9.8"/>
<path class="st6" d="M85.2,136.2"/>
<path class="st6" d="M92,125.1"/>
<path class="st6" d="M109.3,133.3c-1.3,11-11.7,19.6-24.3,19.6c-12.7,0-23.1-8.6-24.3-19.7"/>
<path class="st6" d="M106.1,96.3c0-1.5-0.2-5.5-3-9.4c-2.4-3.4-5.4-4.9-6.8-5.5"/>
<path class="st6" d="M64.5,96.8c0-1.5,0.2-5.5,3-9.4c2.4-3.4,5.4-4.9,6.8-5.5"/>
</svg>
