<?xml version="1.0" encoding="utf-8"?>
<!-- Generator: Adobe Illustrator 24.0.2, SVG Export Plug-In . SVG Version: 6.00 Build 0)  -->
<svg version="1.1" id="Capa_1" xmlns="http://www.w3.org/2000/svg" xmlns:xlink="http://www.w3.org/1999/xlink" x="0px" y="0px"
	 viewBox="0 0 170.1 170.1" style="enable-background:new 0 0 170.1 170.1;" xml:space="preserve">
<style type="text/css">
	.st0{fill:#0386BF;}
	.st1{fill:#F9C38B;}
	.st2{fill:#EDD7EA;}
	.st3{fill:#C9A283;stroke:#3D396A;stroke-width:2;stroke-miterlimit:10;}
	.st4{fill:#3D396A;}
	.st5{fill:#C9A283;}
	.st6{fill:#EEEDED;}
	.st7{fill:none;}
	.st8{fill:none;stroke:#3D396A;stroke-width:2;stroke-miterlimit:10;}
	.st9{fill:#EDD7EA;stroke:#3D396A;stroke-width:2;stroke-miterlimit:10;}
</style>
<path class="st0" d="M137.1,22.7c3.7-0.9,8.5-2.9,13.8-7.4c2,3.9,4.7,10.7,4.5,19.3c-0.1,4.4-0.3,13.8-7.4,21.8
	c-3.5,4-7.6,6.2-11,7.6c-0.3,2.9-0.4,7.2,0.5,12.3c0.1,0.8,0.5,2.7,1.8,7.5c2.4,8.6,3.7,10.9,4,12.7c0.8,4.5-3.3,12-25.9,24.6
	c-1.6,2.1-3.3,3.4-4.1,4c0,0-0.1,0.1-0.3,0.2c-0.5,1.9-1.3,4.8-1.3,8.4c0,3.9,0.9,5.8-0.2,9.4c-1.5,4.7-5,7.6-6,8.3
	c0,0-2.6,2.1-6.4,3.3c-5.1,1.7-11.1,1.1-12,1.1c-0.9,0.1-7,0.6-12.1-1.1c-3.8-1.2-6.4-3.3-6.4-3.3c-1-0.8-4.5-3.6-6-8.3
	c-1-3.2,0-4.1-0.2-9.4c-0.2-3.6-0.8-6.5-1.3-8.4c-0.1-0.1-0.3-0.2-0.3-0.2c-0.8-0.6-2.6-1.9-4.2-4C34.3,108.4,30.2,101,31,96.4
	c0.3-1.8,1.6-4.1,4-12.7c1.3-4.8,1.7-6.7,1.8-7.5c0.9-5.1,0.7-9.4,0.5-12.3c-3.4-1.3-7.5-3.6-11-7.6c-7.1-8-7.3-17.4-7.4-21.8
	c-0.2-8.6,2.5-15.4,4.5-19.3c6.3,5.4,11.9,7.2,15.8,7.8c6.4,1,9.7-0.8,14.6,1c3.3,1.2,5.8,3.6,7.6,6.1c1.3-1,2-1.6,3.3-2.2
	c4.6-2.3,9.1-1.9,11.9-1.6c4.9,0.4,8.6,2,10.5,3c1.9-1,5.6-2.6,10.5-3c2.8-0.2,7.4-0.6,11.9,1.6c1.3,0.6,2,1.2,3.3,2.2
	c1.9-2.6,4.3-4.9,7.6-6.1c4.9-1.9,8.2,0,14.6-1C135.7,23,136.4,22.9,137.1,22.7z"/>
<path class="st1" d="M13.7,77.2"/>
<path class="st1" d="M99.6,55.3c0.2,0.8,0.4,1.6,1.3,2c1.1,0.5,2.3,1,3.4,1.2c0.4,0.1,1.1-0.3,1.4-0.6c0.8-0.7,1.3-2.1,2.1-2.3
	c1.3-0.4,1.5,1.7,3.1,1.9c1.2-0.9,2-2.4,2.7-3.8c1-1.8,1.7-3.8,2.9-5.4c1.4-1.9,1.7-4.2,1.7-6.3c0-2-0.9-3.9-1.6-5.8
	c-0.3-0.8-1.2-1.1-2-1.2c-0.8,0-1.3,0.5-1.5,1.2c-0.4,1.2-0.6,2.4-1.4,3.4c-0.7,0.9-1.7,1-2.4,0.2c-1.6-1.7-3.2-3.4-4.8-5.1
	c-1.3-1.4-1.8-1.2-2.9,0.5c-1.1,1.7-0.9,4.5-3.9,4.6c-0.2,0-0.4,0.7-0.6,1c-0.2,0.5-0.5,1-0.5,1.6c-0.1,3.7-0.5,7.4,1.9,10.6
	C99.1,53.7,99.3,54.5,99.6,55.3z"/>
<path class="st1" d="M102.2,123.5c1.6-1.1,3-2.3,4.5-3.4c1.1-0.8,2-1.8,2.4-3.2c0.3-1,1.1-2,1.2-3c0.1-1.2-1.5-1.4-1.9-2.5
	c-0.3-1.1-1.3-1.3-2.3-0.6c-0.6,0.4-1.1,0.1-1.4-0.3c-0.4-0.7-0.7-1.6-1.8-1.4c-0.9,0.2-1.2,1.1-1.6,1.7c-0.2,0.2-0.3,0.4-0.5,0.6
	c-0.1-0.1-0.3-0.2-0.3-0.3c-0.4-0.5-0.5-1.4-1.4-1.3c-0.8,0.1-1.1,0.8-1.1,1.5c-0.1,2.7-0.2,5.5-0.3,8.2c-0.1,1.5,0.7,2.6,1.7,3.6
	C100.3,124.1,101,124.3,102.2,123.5z"/>
<path class="st1" d="M41.3,25.1c0-0.6,0-1.2-0.2-1.7c-0.6,0-1.2-0.1-1.8-0.2c-3.9-0.6-9.5-2.4-15.8-7.8c-2,3.9-4.7,10.7-4.5,19.3
	c0,2.2,0.1,5.8,1.1,9.8c0.1-0.2,0.1-0.4,0.2-0.6c0-0.8-0.1-1.6-0.1-2.5c0-0.5-0.3-1.2,0.5-1.3c0.6-0.1,0.9,0.5,1.2,0.9
	c0.4,0.7,0.8,1.4,1.2,2.1c0.4,0.6,1,1,1.7,0.9c0.8-0.1,1-0.8,1.1-1.5c0.2-1.5,0.4-3,0.7-4.4c0.1-0.3,0.5-0.7,0.9-0.3
	c0.4,0.3,0.8,0.7,1.3,1c1,0.6,2,0.2,2.1-0.9c0.1-2,0.1-4.1,0.3-6.1c0-0.2,0.2-0.5,0.4-0.6c0.2-0.1,0.6,0,0.7,0.1
	c1.3,1.4,2.5,2.9,3.8,4.3c1.2,1.3,3,0.9,3.7-0.7c0.2-0.5,0.4-1,0.4-1.6c0-1.3,0.2-2.4,1-3.5c0.5-0.5,0.4-1.3,0.3-2
	C41.2,27,41.3,26,41.3,25.1z"/>
<path class="st1" d="M52.8,68.1c-0.6,1.9-1.9,3.5-2,5.5c-0.2,2.6-1.1,4.8-3,6.6c-0.4,0.4-0.7,0.8-0.9,1.3c-0.7,1.2,0.1,3-1.6,3.7
	c-1.3,0.5-2.4-0.5-3.6-0.7c-2.1-0.3-4.2,0.4-6.3-0.6c-0.1-0.1-0.3,0-0.5,0c1.4-4.8,1.7-6.8,1.9-7.6c0.9-5.1,0.7-9.4,0.5-12.3
	c-0.9-0.4-2-0.8-3-1.4c0.3-0.9,0.6-1.7,1.2-2.4c2.1-2.3,2.5-5,2.9-7.8c0.4-2.4,0.9-4.8,1.3-7.3c0.3-1.8,1-2.4,2.8-2.5
	c0.7,0,1.4,0.1,2.1,0.1c1.2,0,2,0.8,2.3,1.8c0.4,1.4,0.8,2.7,2,3.7c0.9,0.7,0.8,1.9,0.8,3c0.1,3.3,0.3,6.7,2.4,9.6
	c0.8,1.2,0.9,2.7,0.8,4.7c0-0.3,0,0.1,0,0.4C53.1,66.8,53,67.5,52.8,68.1z"/>
<path class="st1" d="M51,102.7c0-0.1,0-0.3-0.1-0.4c-0.5-1.7-1.1-3.3-1.5-5.1c0-0.1-0.1-0.3-0.2-0.4c-0.4-0.6-1-0.9-1.8-0.9
	c-0.8,0-1.3,0.3-1.6,1.1c-0.6,1.6-0.7,3.5-3.2,4.6c-1.5-2.6-4-4.2-5.8-6.5c-0.8-1-1.7-0.9-2.2,0.2c-0.6,1.2-1.1,2.5-1.6,3.8
	c-0.2,0.6-0.6,1-1.2,1c-0.2,0-0.3,0-0.5,0c1.3,3.5,5.4,8.1,14.8,14.3c1.3-2.3,2.6-4.7,3.9-7c0.3-0.5,0.4-1,0.5-1.6
	C50.7,104.9,51.1,103.7,51,102.7z"/>
<path class="st1" d="M68.8,73.2c3.3-2.4,6.4-5,9.6-7.7c0.6-0.5,1-1.4,1.2-2.3c0.4-1.5,0.9-2.8,2-4c0.7-0.7,0.6-1.7-0.1-2.3
	c-1.2-1.2-2.6-2.2-3.3-3.9c-0.4-1.1-1.7-1.3-2.8-0.6c-1.1,0.7-2.1,0.8-2.8-0.3c-0.6-0.9-0.9-2.1-2.2-2.2c-1.6-0.1-2.2,1.1-2.7,2.4
	c-0.3,0.6-0.6,1.2-1.1,2.1c-0.7-1.4-1-1.9-1.3-2.5c-0.3-0.7-0.8-1.1-1.5-0.9c-0.5,0.2-1.2,0.7-1.4,1.2c-0.3,1-0.5,2.1-0.6,3.2
	c-0.2,3.3-0.1,6.5-0.4,9.8c-0.3,3.1,1,5.5,3.1,7.6C66,74,67.3,74.3,68.8,73.2z"/>
<path class="st1" d="M82.1,42.2c0.2-2.1,0.3-4.2,0.4-6.3c0.1-2.9-0.1-5.7-0.6-8.5c-1.6-0.4-3.3-0.8-5.3-1c-2.8-0.2-7.4-0.6-11.9,1.6
	c-0.3,0.1-0.5,0.2-0.7,0.4c0.6,2.3,1.3,4.6,1.9,6.9c0.5,1.8,1.5,4.3,3.8,4.8c3.1,0.7,4.7,2.7,6,5.2c0.7,1.4,1.9,1.7,3.1,2
	c1.7,0.5,2.6,0,2.8-1.7C81.9,44.5,82,43.4,82.1,42.2z"/>
<path class="st1" d="M125.6,99.1c0.2,0.2,0.4,0.5,0.6,0.9c0.8,1.6,1.5,3.2,2.3,4.8c1,1.9,1,1.9,3.4,1.2c0.4-0.1,0.7-0.2,0.7-0.3
	c0.7-0.3,2.3-0.3,5.8,0.8c4.4-4.4,5.3-7.6,4.9-10c-0.3-1.8-1.6-4.1-4-12.7c-1.4-4.8-1.7-6.7-1.8-7.5c-0.1-0.8-0.3-1.6-0.3-2.3
	c-0.6,2-1,3.4-1.3,4.1c-0.1,0.1-0.2,0.4-0.4,0.5c-0.3,0.1-0.6,0-0.9-0.2c-0.3-0.3-0.6-0.6-0.9-0.8c-1.2-0.8-2-0.5-2.4,0.9
	c-0.4,1.6-0.6,3.2-0.9,4.8c-0.1,0.4-0.3,0.8-0.6,1c-0.4,0.3-0.7-0.1-1-0.4c-1-1.4-2-2.9-3-4.4c-0.9-1.2-2.7-1.1-3.5,0.2
	c-0.2,0.3-0.5,0.7-0.6,1.1c-0.3,1.5-0.5,3-1.8,4c-0.3,0.2-0.4,0.8-0.4,1.1c0.3,2-1.2,4,0,6c0.3,0.5-0.1,1-0.4,1.5
	c-0.5,0.9-0.2,1.6,0.7,1.9c1.3,0.5,2.4,1.1,2.5,2.8c0,0.9,0.8,1.2,1.5,0.8C124.7,98.7,125.2,98.8,125.6,99.1z"/>
<path class="st1" d="M155.4,35c0-0.1,0-0.2,0-0.3c0.2-8.6-2.5-15.4-4.5-19.3c-5.3,4.5-10.1,6.5-13.8,7.4c-0.7,0.2-1.4,0.3-2,0.4
	c-1.5,0.2-2.8,0.3-4,0.3c-0.2,1.1-0.3,2.1,0.4,3.2c0.1,0.3-0.2,0.8-0.3,1.1c-0.4,1.6-0.5,1.8,1.1,2.4c0.1,0,1.1,0.5,1.6,1.1
	c0.2,0.2,0.8,1.1,0.4,3c0.3,0,0.7,0,1.1,0.1c0.3,0.1,0.8,0.2,1.7,0.6c0.9,0.5,1.4,0.7,1.8,1.1c0.6,0.6,0.3,1.1,1.2,2.6
	c0.4,0.8,0.6,1.9,1.6,2.3c0.9,0.3,1.6-0.1,2.3-0.5c0.2-0.1,0.6-0.2,0.8-0.1c1.8,1,3.8,0.2,5.6,0.7c1,0.3,1.6,0.4,2.1,0.2
	c0.6-0.3,0.7-1,1.4-1.9c0.5-0.6,1.1-1,1.5-1.2C155.4,37,155.4,35.9,155.4,35z"/>
<path class="st1" d="M100.9,73.2c1.7,1,5.3,2.8,10.1,2.8c1.3,0,8.1-0.2,13.2-5.5c2-2.1,3.1-4.3,3.7-5.7c-1.4-0.6-11.2-5.1-17.8-1.3
	c-1,0.5-2.6,1.7-4.2,3.2C103.4,68.9,101.8,71.4,100.9,73.2C100.8,73.1,100.9,73.2,100.9,73.2z"/>
<path class="st1" d="M74,73.2C74,73.2,74,73.2,74,73.2c-0.9-1.7-2.5-4.2-5.1-6.6c-1.6-1.5-3.3-2.6-4.2-3.2
	c-6.6-3.7-16.4,0.7-17.8,1.3c0.6,1.4,1.7,3.6,3.7,5.7c5.2,5.3,11.9,5.5,13.2,5.5C68.6,76,72.2,74.2,74,73.2z"/>
<path class="st2" d="M105.7,99.6C105.7,99.6,105.7,99.6,105.7,99.6c-2,4.1-5.1,6.2-7.1,7.5c-4.4,2.9-8.8,3.8-11.3,4.1
	c-2.4-0.3-6.8-1.1-11.2-4.1c-2-1.3-5.2-3.4-7.1-7.4c-1.3-2.7-1.9-6-1.8-8.9c2.1,2.2,5.5,5,10.2,6.9c3.8,1.5,7.3,2,9.8,2
	c2.5-0.1,6-0.5,9.8-2c4.7-1.9,8.1-4.7,10.2-6.9C107.6,93.7,107,96.9,105.7,99.6z"/>
<path class="st3" d="M101.9,102c0.4,0.2,0.8,0.4,1.2,0.7c-1.7,1.9-3.5,3.1-4.8,4c-0.6,0.4-1.1,0.7-1.7,1c-0.2-1-0.3-2.5,0.5-3.8
	c0.2-0.4,1.1-1.9,2.8-2.2C100.6,101.7,101.2,101.8,101.9,102z"/>
<path class="st4" d="M111.6,63.2c0.1-0.2,0.1-0.5,0.2-0.7c0.6-0.2,1.3-0.4,1.9-0.5c0.9,2,1.8,4.8,1.9,8c0.1,2-0.1,3.7-0.4,5.3
	c-1.4,0.3-2.6,0.4-3.3,0.5c-0.5-2-0.9-4.3-0.8-7C110.9,66.7,111.2,64.9,111.6,63.2z"/>
<path class="st3" d="M77.7,106.4c0-0.8-0.2-1.6-0.6-2.4c-0.2-0.4-1.1-1.9-2.8-2.2c-1.1-0.2-2.3,0.2-3.2,0.9c1.7,1.9,3.5,3.1,4.8,4
	c0.6,0.4,1.1,0.7,1.7,1C77.6,107.3,77.7,106.9,77.7,106.4z"/>
<path class="st4" d="M60.2,62.6c-0.8,2-1.5,4.5-1.6,7.4c-0.1,2.1,0.2,3.9,0.5,5.5c1.3,0.3,2.4,0.5,3.2,0.5c0.5-2,1-4.5,0.9-7.3
	c0-2.3-0.4-4.3-0.8-6c-0.7-0.2-1.3-0.4-2-0.5C60.3,62.4,60.3,62.5,60.2,62.6z"/>
<path class="st5" d="M90.1,124.1c0.3,0.8,2.1,6.4,2.1,6.4l1.2-4.4c0,0,0,0,0-0.1c0.5,0.3,1.1,0.6,1.7,0.8c0,0,0.9,4.5,0.9,4.5
	s1.3-3.7,1.3-3.7c1.3,0.4,3,0.8,5,0.8c0.4,1.1,0.8,2.3,1.1,3.6c0.2,0.8,0.4,1.6,0.5,2.4c-0.7,0.9-1.5,1.8-2.5,2.7
	c-0.5-2.8-1.4-5-2.1-6.5c-0.4,2.1-0.9,4.4-1.5,6.8c-0.3,1-0.6,2.1-0.9,3c-0.1,0.1-0.3,0.2-0.4,0.2c-0.3,0.1-0.5,0.3-0.8,0.4
	c-1-2.3-2.2-5-2.2-5l-1.5,4.6l-2.2-4c0,0-0.2,0.6-0.4,1.4c0,0-1.2,4.5-1.4,5.3c-0.4,0.1-0.8,0.1-1.1,0.1c-0.3,0-0.7-0.1-1.1-0.1
	c-0.2-0.8-1.4-5.3-1.4-5.3c-0.2-0.8-0.4-1.4-0.4-1.4l-2.2,4l-1.5-4.6c0,0-1.2,2.7-2.2,5c-0.3-0.1-0.5-0.3-0.8-0.4
	c-0.1-0.1-0.3-0.2-0.4-0.2c-0.3-1-0.6-2-0.9-3c-0.7-2.4-1.2-4.7-1.5-6.8c-0.7,1.5-1.6,3.7-2.1,6.5c-1-0.9-1.8-1.8-2.5-2.7
	c0.1-0.8,0.3-1.6,0.5-2.4c0.3-1.3,0.7-2.5,1.1-3.6c2,0,3.7-0.4,5-0.8c0,0.1,1.3,3.7,1.3,3.7l0.9-4.5c0.6-0.3,1.2-0.5,1.7-0.8
	c0,0.1,0,0.1,0,0.1l1.2,4.5l2.1-6.5c0,0,0.1-0.1,0.1-0.3c1.4-1.1,2.3-2.2,3-3c0.6,0.8,1.7,1.9,3.1,3C90,123.9,90,124,90.1,124.1
	C90,124,90.1,124,90.1,124.1z"/>
<g>
	<path class="st6" d="M104.5,138.2c0.1,0.9,0.1,1.7,0,2.4c1.2-1.4,3.5-4.4,4.5-9c0.4-1.9,0.4-3.7,0.3-5.2c-1.1,0.5-2,0.7-2.6,0.8
		c-1.6,0.4-3.1,0.5-4.4,0.5c0.4,1.1,0.8,2.3,1.1,3.6C104.1,133.9,104.4,136.2,104.5,138.2z"/>
	<path class="st6" d="M102.3,127.8"/>
	<path class="st6" d="M99.9,131c0.6,1.4,1.2,3.2,1.6,5.4c-1.3,1.2-2.8,2.3-4.6,3.4c0.3-1,0.6-2,0.9-3c0.7-2.4,1.2-4.7,1.5-6.8
		C99.6,130.3,99.8,130.6,99.9,131z"/>
	<path class="st6" d="M88.4,141.2l1.4-5.2l2.2,4l1.5-4.6c0,0,1.2,2.7,2.2,5c-2.9,1.5-5.7,2.1-7.7,2.4c0.2-0.8,1.4-5.3,1.4-5.3"/>
	<path class="st6" d="M95.7,129.2c-0.3-1.3-0.6-3-0.6-3c0.4,0.2,1.2,0.5,2.2,0.8c0,0-1.3,3.7-1.3,3.7S95.9,130,95.7,129.2z"/>
	<path class="st6" d="M92.4,129.1c0.4-1.3,1-3.6,1-3.6s0,0,0-0.1c-1.3-0.7-2.5-1.4-3.4-2.2c0,0.1,0.1,0.3,0.1,0.3l2.1,6.5
		C92.1,129.9,92.2,129.6,92.4,129.1z"/>
	<path class="st6" d="M69.4,138.2c0.1-2,0.4-4.3,1-6.9c0.3-1.3,0.7-2.5,1.1-3.6c-1.4,0-2.9-0.1-4.4-0.5c-0.5-0.1-1.4-0.4-2.6-0.8
		c-0.1,1.6-0.1,3.3,0.3,5.2c0.9,4.6,3.3,7.6,4.5,9C69.3,139.9,69.3,139.1,69.4,138.2z"/>
	<path class="st6" d="M75.3,134.2c-0.4-1.5-0.7-2.9-0.9-4.3c-0.7,1.5-1.6,3.7-2.1,6.5c1.3,1.2,2.8,2.3,4.6,3.4c-0.3-1-0.6-2-0.9-3
		C75.8,135.9,75.5,135,75.3,134.2z"/>
	<path class="st6" d="M85.4,141.2l-1.4-5.2l-2.2,4l-1.5-4.6c0,0-1.2,2.7-2.2,5c2.9,1.5,5.7,2.1,7.7,2.4c-0.2-0.8-1.4-5.3-1.4-5.3"/>
	<path class="st6" d="M78.1,129.2c0.3-1.3,0.6-3,0.6-3c-0.1,0.1-0.3,0.1-0.4,0.2c-0.4,0.2-1,0.4-1.8,0.6c0,0.1,1.3,3.7,1.3,3.7
		S78,130,78.1,129.2z"/>
	<path class="st6" d="M82.8,126.8c0.5-1.7,1.1-3.4,1.1-3.4s0.1-0.2,0.1-0.3c-1,0.8-2.1,1.6-3.4,2.3c0,0.1,0,0.1,0,0.1l1.2,4.5
		C81.7,129.9,82.3,128.4,82.8,126.8z"/>
</g>
<path class="st7" d="M91,53.4c0.2-0.3,0.4-0.5,0.5-0.6c1.7-1.7,4-1.6,4.5-1.5c1.1,0.1,1.9,0.5,2.5,0.9c0,0,0-5.3,0-5.3v-6.3
	C92.9,42,87,43.4,83.4,44.2v4.5c0,0,0,6,0,11.9c-0.6,1.6-1.8,2.9-3.3,3.5c-1.7,0.7-4.2,0.7-5.8-0.9C73,62,73,60.2,73,60
	c0.1-1.7,1-2.7,1.3-3c1.7-1.7,4-1.6,4.5-1.5c1,0.1,1.8,0.5,2.4,0.8c0-0.1,0-11.2,0-11.2v-6.8c2.9-0.7,11.4-2.7,19-4.5v11v12.2
	c-0.7,1.4-1.7,2.4-3.1,3c-1.7,0.7-4.2,0.7-5.8-0.9c-1.3-1.3-1.3-3.1-1.3-3.3C90.2,54.8,90.6,54,91,53.4z"/>
<path class="st8" d="M138,58.6"/>
<path class="st8" d="M117.3,120.9c22.6-12.6,26.8-20,25.9-24.6c-0.3-1.8-1.6-4.1-4-12.7c-1.4-4.8-1.7-6.7-1.8-7.5
	c-0.9-5.1-0.7-9.4-0.5-12.3"/>
<path class="st8" d="M87,111.2c2.4-0.3,6.8-1.1,11.3-4.1c2-1.3,5.2-3.4,7.1-7.4c2.6-5.3,2.6-13-1.4-15.9c-1.2-0.8-3.3-1.7-5.5-1.1
	c-2.1,0.6-3.3,2.1-3.7,2.6"/>
<path class="st8" d="M104.8,84.6c0.9-1.4,1.1-3,0.6-4.4c-1.1-2.9-5-3.1-5.2-3.1c-2-0.1-3.4,0.8-4,1.2"/>
<path class="st8" d="M87,120.7c1.3,1.6,4.1,4.5,8.6,6.2c1.7,0.6,6,2.2,11.3,0.9c1.1-0.3,3.6-1,6.3-2.9c1.3-1,5.3-3.9,6.6-9.3
	c0.5-1.9,1.3-5.5-0.8-8c-1.8-2.1-4.6-2.3-4.9-2.3c-1.9-0.1-3.4,0.6-4,0.9"/>
<path class="st8" d="M119.1,107.6c1.4-2,1.7-4.3,0.8-6c-1.5-2.7-5.5-2.6-6.6-2.6c-1.8,0-3.2,0.5-4,0.9"/>
<path class="st8" d="M113,125c-0.5,1.9-1.3,4.8-1.3,8.4c0,3.9,0.9,5.8-0.2,9.4c-1.5,4.7-5,7.6-6,8.3c0,0-2.6,2.1-6.4,3.3
	c-5.1,1.7-11.1,1.1-12,1.1c-0.9,0.1-7,0.6-12.1-1.1c-3.8-1.2-6.4-3.3-6.4-3.3c-1-0.8-4.5-3.6-6-8.3c-1-3.2,0-4.1-0.2-9.4
	c-0.2-3.6-0.8-6.5-1.3-8.4"/>
<path class="st8" d="M117.4,33.6c-5.2-3.6-5.5-4.5-7.9-5.7c-4.6-2.3-9.1-1.9-11.9-1.6c-4.9,0.4-8.6,2-10.5,3c-1.9-1-5.6-2.6-10.5-3
	c-2.8-0.2-7.4-0.6-11.9,1.6c-2.4,1.2-2.7,2-7.9,5.7"/>
<path class="st8" d="M145.6,58.6c0.8-0.7,1.6-1.5,2.3-2.3c7.1-7.9,7.3-17.4,7.4-21.8c0.2-8.6-2.5-15.4-4.5-19.3
	c-6.3,5.4-11.9,7.2-15.8,7.8c-6.4,1-9.7-0.8-14.6,1c-3.3,1.2-5.8,3.6-7.6,6.1"/>
<path class="st8" d="M132.1,65.3c2.9-0.6,8.4-2.3,13.5-6.7"/>
<path class="st8" d="M100.5,73c1.7,1,5.3,2.8,10.1,2.8c1.3,0,8.1-0.2,13.2-5.5c2-2.1,3.1-4.3,3.7-5.7c-1.4-0.6-11.2-5.1-17.8-1.3
	c-1,0.5-2.6,1.7-4.2,3.2C103,68.8,101.4,71.3,100.5,73C100.5,73,100.5,73,100.5,73z"/>
<path class="st9" d="M146.2,27.2c-1.8-0.5-2.8,4.4-8.5,6.7c-3.3,1.3-4.4,0.3-7.8,2.2c-1.3,0.7-4.2,2.4-5.4,5.8
	c-0.2,0.5-0.6,1.7-0.5,3.3c0.2,3.9,3.5,6.3,4,6.7c0.4,0.3,3.1,2.2,6.7,2c7-0.4,10.9-8.4,11.5-9.5C149.7,36.9,148.6,27.9,146.2,27.2z
	"/>
<path class="st8" d="M96.6,108.1c-0.2-1-0.3-2.5,0.5-3.8c0.2-0.4,1.1-1.9,2.8-2.2c1.1-0.2,2.3,0.2,3.2,0.9"/>
<path class="st8" d="M110.3,60.6"/>
<path class="st8" d="M109.5,126.9c0.1,1.6,0.1,3.3-0.3,5.3c-0.9,4.6-3.3,7.6-4.5,9c0.1-2.4-0.1-5.6-1.1-9.3
	c-0.3-1.3-0.7-2.5-1.1-3.6"/>
<path class="st8" d="M101.7,137.1c-0.5-2.8-1.4-5.1-2.1-6.7c-0.4,2.1-0.9,4.4-1.5,6.8c-0.3,1-0.6,2.1-0.9,3"/>
<path class="st8" d="M95.9,140.9c-1-2.3-2.2-5-2.2-5l-1.5,4.6l-2.2-4l-1.4,5.2"/>
<path class="st8" d="M98.6,123.9"/>
<polyline class="st8" points="95.2,126.7 96.2,131.2 97.4,127.5 "/>
<polyline class="st8" points="90.2,123.9 92.3,130.4 93.5,126 "/>
<path class="st8" d="M115,75.2c0.3-1.6,0.6-3.4,0.5-5.5c-0.1-3.2-0.9-5.8-1.8-7.8"/>
<path class="st8" d="M113.5,80.3"/>
<path class="st8" d="M111.7,62.4c-0.4,1.7-0.8,3.8-0.8,6c-0.1,2.8,0.4,5.2,0.9,7.2"/>
<path class="st8" d="M105.2,117.4c2.5,0.4,7.5,1.6,12.2,5.5c2.4,2,3.9,4.2,4.9,5.9"/>
<path class="st8" d="M106,113c2.1-0.7,5.7-1.6,10.2-1.1c7.1,0.8,11.8,4.8,13.4,6.3"/>
<path class="st8" d="M87.7,144.9"/>
<line class="st8" x1="89.6" y1="138" x2="88.1" y2="143.4"/>
<path class="st8" d="M36.1,58.6"/>
<path class="st8" d="M56.8,120.8c-22.6-12.5-26.7-20-25.9-24.5c0.3-1.8,1.6-4.1,4-12.7c1.3-4.8,1.7-6.7,1.8-7.5
	c0.9-5.1,0.7-9.4,0.5-12.3"/>
<path class="st8" d="M87,111.2c-2.4-0.3-6.8-1.1-11.2-4.1c-2-1.3-5.2-3.4-7.1-7.4c-2.6-5.3-2.6-13,1.4-15.9c1.2-0.8,3.3-1.7,5.5-1.1
	c2.1,0.6,3.3,2.1,3.7,2.6"/>
<path class="st8" d="M69.3,84.6c-0.9-1.4-1.1-3-0.6-4.4c1.1-2.9,5-3.1,5.2-3.1c2-0.1,3.4,0.8,4,1.2"/>
<path class="st8" d="M87,120.7c-1.3,1.5-4,4.5-8.5,6.2c-1.6,0.6-5.9,2.2-11.3,0.9c-1.1-0.3-3.6-1-6.3-2.9c-1.3-1-5.3-3.9-6.6-9.3
	c-0.5-1.9-1.3-5.5,0.8-8c1.8-2.1,4.6-2.3,4.9-2.3c1.9-0.1,3.4,0.6,4,0.9"/>
<path class="st8" d="M87,120.8c0,0-0.1,0.1-0.1,0.1"/>
<path class="st8" d="M55.1,107.6c-1.4-2-1.7-4.3-0.8-6c1.5-2.7,5.5-2.6,6.6-2.6c1.8,0,3.2,0.5,4,0.9"/>
<path class="st8" d="M61.3,30.1c-1.9-2.6-4.3-4.9-7.6-6.1c-4.9-1.9-8.2,0-14.6-1c-3.9-0.6-9.5-2.4-15.8-7.8
	c-2,3.9-4.7,10.7-4.5,19.3c0.1,4.4,0.3,13.8,7.4,21.8c5.6,6.2,12.5,8.3,15.8,9"/>
<path class="st8" d="M67,90.7c2.1,2.2,5.5,5,10.3,6.9c3.8,1.5,7.3,2,9.8,2c2.5-0.1,6-0.5,9.8-2c4.8-1.9,8.1-4.7,10.3-6.9"/>
<path class="st8" d="M73.6,73C73.6,73,73.6,73,73.6,73c-0.9-1.7-2.5-4.2-5.1-6.6c-1.6-1.5-3.3-2.6-4.2-3.2
	c-6.6-3.7-16.4,0.7-17.8,1.3c0.6,1.4,1.7,3.6,3.7,5.7c5.2,5.3,11.9,5.5,13.2,5.5C68.3,75.8,71.9,74.1,73.6,73z"/>
<path class="st9" d="M27.9,27.2c1.8-0.5,2.8,4.4,8.5,6.7c3.3,1.3,4.4,0.3,7.8,2.2c1.3,0.7,4.2,2.4,5.4,5.8c0.2,0.5,0.6,1.7,0.5,3.3
	c-0.2,3.9-3.5,6.3-4,6.7c-0.4,0.3-3.1,2.2-6.7,2c-7-0.4-10.9-8.4-11.5-9.6C24.4,36.9,25.5,27.9,27.9,27.2z"/>
<path class="st8" d="M77.5,108.1c0.2-1,0.3-2.5-0.5-3.8c-0.2-0.4-1.1-1.9-2.8-2.2c-1.1-0.2-2.3,0.2-3.2,0.9"/>
<path class="st8" d="M63.8,60.6"/>
<path class="st8" d="M71.7,128.3c-0.4,1.1-0.8,2.3-1.1,3.6c-0.9,3.7-1.1,6.9-1.1,9.3c-1.2-1.4-3.5-4.4-4.5-9
	c-0.4-1.9-0.4-3.7-0.3-5.3"/>
<path class="st8" d="M70,134.2c1.6,2,4,4.4,7.5,6.3c3.8,2.1,7.4,2.7,9.6,2.9c2.2-0.2,5.8-0.8,9.6-2.9c3.4-1.9,5.8-4.3,7.5-6.3"/>
<path class="st8" d="M77,140.3c-0.3-1-0.6-2-0.9-3c-0.7-2.4-1.2-4.7-1.5-6.8c-0.8,1.6-1.7,3.8-2.1,6.7"/>
<path class="st8" d="M78.2,140.9c1-2.3,2.2-5,2.2-5l1.5,4.6l2.2-4l1.4,5.2"/>
<path class="st8" d="M75.5,123.9"/>
<polyline class="st8" points="78.9,126.7 77.9,131.2 76.7,127.5 "/>
<polyline class="st8" points="83.9,123.9 81.9,130.4 80.6,126 "/>
<path class="st8" d="M59.1,75.2c-0.3-1.6-0.6-3.4-0.5-5.5c0.1-3.2,0.9-5.8,1.8-7.8"/>
<path class="st8" d="M60.6,80.3"/>
<path class="st8" d="M62.4,62.4c0.4,1.7,0.8,3.8,0.8,6c0,2.8-0.4,5.2-0.9,7.2"/>
<path class="st8" d="M68.9,117.4c-2.5,0.4-7.5,1.6-12.2,5.5c-2.4,2-3.9,4.2-4.9,5.9"/>
<path class="st8" d="M68.2,113c-2.1-0.7-5.7-1.6-10.2-1.1c-7.1,0.8-11.8,4.8-13.4,6.3"/>
<path class="st8" d="M86.4,144.9"/>
<line class="st8" x1="84.6" y1="138" x2="86" y2="143.4"/>
<path class="st8" d="M87,111.2c0,3.2,0,6.3,0,9.5"/>
<path class="st8" d="M87,129.3"/>
<path class="st8" d="M60.2,154.1"/>
<path class="st8" d="M87,136.4"/>
</svg>
