<?xml version="1.0" encoding="utf-8"?>
<!-- Generator: Adobe Illustrator 24.0.2, SVG Export Plug-In . SVG Version: 6.00 Build 0)  -->
<svg version="1.1" id="Layer_1" xmlns="http://www.w3.org/2000/svg" xmlns:xlink="http://www.w3.org/1999/xlink" x="0px" y="0px"
	 viewBox="0 0 113.4 113.4" style="enable-background:new 0 0 113.4 113.4;" xml:space="preserve">
<style type="text/css">
	.st0{fill:#EDCCFF;stroke:#EDCCFF;stroke-miterlimit:10;}
	.st1{fill:#EDCCFF;stroke:#EDCCFF;stroke-width:2;stroke-linecap:round;stroke-linejoin:round;stroke-miterlimit:10;}
</style>
<g>
	<path class="st0" d="M23.1,90.4c0.4-1.4,0.7-2.8,1.1-4.1c1-3.9,2.1-7.7,3.1-11.6c0.3-0.9,0.1-1.8-0.3-2.7c-2-3.8-3.2-7.9-3.6-12.2
		c-0.4-3.9-0.1-7.7,0.9-11.5c1.7-6.6,5-12.2,10.1-16.7c4.9-4.3,10.6-6.9,17-8c5.3-0.9,10.4-0.5,15.5,1.2c6.1,2,11.2,5.5,15.3,10.4
		c4.4,5.4,7,11.5,7.5,18.5c0.7,9-1.8,17-7.4,23.9C77.2,84,70.7,87.8,62.8,89.3c-7.2,1.3-14.2,0.4-20.8-2.8c-1-0.5-1.9-0.6-3-0.3
		C33.8,87.6,28.5,89,23.1,90.4z M30.6,82.9c0.4-0.1,0.5-0.1,0.7-0.1c2.7-0.7,5.5-1.4,8.2-2.2c1.2-0.3,2.3-0.3,3.3,0.3
		c4.9,2.7,10.1,4,15.7,3.6c7.7-0.7,14.2-3.8,19.3-9.7c7.8-9.1,9.1-22,2.9-32.2c-6.1-10-15.2-14.8-26.9-13.8
		c-7.3,0.6-13.4,3.8-18.2,9.3c-4.1,4.6-6.4,10-7,16.2c-0.5,5.6,0.7,11,3.5,15.9c1,1.8,1.1,3.6,0.5,5.6C31.9,78,31.3,80.4,30.6,82.9z
		"/>
	<path class="st0" d="M65.8,72.6c-4.1-0.3-7.7-1.6-11-3.6c-6-3.7-10.5-8.7-13.8-14.9c-2.2-4.2-1.5-8.7,1.7-11.8
		c1.1-1.1,3.2-1.4,4.5-0.7c0.3,0.2,0.6,0.5,0.7,0.8c1,2.2,1.9,4.4,2.8,6.6c0.4,0.9-0.2,1.7-0.7,2.4c-0.4,0.6-0.9,1.1-1.3,1.6
		c-0.6,0.7-0.7,1.4-0.2,2.3c2.6,4.4,6.3,7.6,11,9.6c1.3,0.6,1.8,0.4,2.7-0.7c0.7-0.8,1.3-1.7,2-2.5c0.8-0.9,1.1-1,2.1-0.5
		c2,1,3.9,1.9,5.9,2.8c0.8,0.4,1.1,0.9,1.1,1.8c-0.1,3.3-2.5,5.9-6.1,6.6C66.7,72.4,66.1,72.5,65.8,72.6z"/>
	<path class="st1" d="M23.8,89.8c-0.2,0.2-0.5,0.3-0.7,0.5"/>
</g>
</svg>
